HIERARCHY
ROOT Hips
{
	OFFSET 0.000000 0.000000 0.000000
	CHANNELS 6 Xposition Yposition Zposition Zrotation Yrotation Xrotation 
	JOINT LowerBack
	{
		OFFSET 0.000000 0.000000 0.000000
		CHANNELS 3 Zrotation Yrotation Xrotation
		JOINT Spine
		{
			OFFSET 0.028270 2.035590 -0.193380
			CHANNELS 3 Zrotation Yrotation Xrotation
			JOINT Spine1
			{
				OFFSET 0.056720 2.048850 -0.042750
				CHANNELS 3 Zrotation Yrotation Xrotation
				JOINT Neck
				{
					OFFSET 0.000000 0.000000 0.000000
					CHANNELS 3 Zrotation Yrotation Xrotation
					JOINT Neck1
					{
						OFFSET -0.054170 1.746240 0.172020
						CHANNELS 3 Zrotation Yrotation Xrotation
						JOINT Head
						{
							OFFSET 0.104070 1.761360 -0.123970
							CHANNELS 3 Zrotation Yrotation Xrotation
							End Site
							{
								OFFSET 0.000000 0.000000 0.000000
							}
						}
					}
				}
				JOINT LeftShoulder
				{
					OFFSET 0.000000 0.000000 0.000000
					CHANNELS 3 Zrotation Yrotation Xrotation
					JOINT LeftArm
					{
						OFFSET 3.362410 1.200890 -0.311210
						CHANNELS 3 Zrotation Yrotation Xrotation
						JOINT LeftForeArm
						{
							OFFSET 4.983000 -0.000000 -0.000000
							CHANNELS 3 Zrotation Yrotation Xrotation
							JOINT LeftHand
							{
								OFFSET 3.483560 -0.000000 -0.000000
								CHANNELS 3 Zrotation Yrotation Xrotation
								JOINT LeftFingerBase
								{
									OFFSET 0.000000 0.000000 0.000000
									CHANNELS 3 Zrotation Yrotation Xrotation
									JOINT LeftHandIndex1
									{
										OFFSET 0.715260 -0.000000 -0.000000
										CHANNELS 3 Zrotation Yrotation Xrotation
										End Site
										{
											OFFSET 0.000000 0.000000 0.000000
										}
									}
								}
								JOINT LThumb
								{
									OFFSET 0.000000 0.000000 0.000000
									CHANNELS 3 Zrotation Yrotation Xrotation
									End Site
									{
										OFFSET 0.000000 0.000000 0.000000
									}
								}
							}
						}
					}
				}
				JOINT RightShoulder
				{
					OFFSET 0.000000 0.000000 0.000000
					CHANNELS 3 Zrotation Yrotation Xrotation
					JOINT RightArm
					{
						OFFSET -3.136600 1.374050 -0.404650
						CHANNELS 3 Zrotation Yrotation Xrotation
						JOINT RightForeArm
						{
							OFFSET -5.241900 -0.000000 -0.000000
							CHANNELS 3 Zrotation Yrotation Xrotation
							JOINT RightHand
							{
								OFFSET -3.444170 -0.000000 -0.000000
								CHANNELS 3 Zrotation Yrotation Xrotation
								JOINT RightFingerBase
								{
									OFFSET 0.000000 0.000000 0.000000
									CHANNELS 3 Zrotation Yrotation Xrotation
									JOINT RightHandIndex1
									{
										OFFSET -0.622530 -0.000000 -0.000000
										CHANNELS 3 Zrotation Yrotation Xrotation
										End Site
										{
											OFFSET 0.000000 0.000000 0.000000
										}
									}
								}
								JOINT RThumb
								{
									OFFSET 0.000000 0.000000 0.000000
									CHANNELS 3 Zrotation Yrotation Xrotation
									End Site
									{
										OFFSET 0.000000 0.000000 0.000000
									}
								}
							}
						}
					}
				}
			}
		}
	}
}
}
MOTION
Frames: 18
Frame Time: 0.008333
-11.609482 17.719829 -0.743035 -51.864355 88.702746 -27.380531 3.384119 -3.315996 -4.193736 0.747754 -3.635384 -3.872212 -4.687378 -3.650112 -0.856044 7.151131 -16.271259 -10.056371 -2.388010 -0.153516 -0.645686 0.000000 0.000000 0.000000 5.001432 7.539177 -0.359219 -78.833046 -6.095173 31.327024 -178.467390 -68.995780 179.985615 2.925440 -7.186957 -0.209487 -0.137040 0.858786 -0.000000 0.000000 0.000000 0.000000 0.000000 0.000000 0.000000 3.551049 -11.237731 -0.418074 72.073095 -19.562381 27.221194 179.920211 76.426391 179.968368 -2.807794 12.571974 -0.317876 -0.036527 -0.569935 0.000000 0.000000 0.000000 0.000000 0.000000 0.000000 0.000000 
-11.353820 17.788933 -0.717454 -46.405815 88.423486 -21.788472 3.592421 -3.244917 -4.428151 0.799041 -3.583058 -3.917669 -4.607812 -3.598481 -0.823929 6.917910 -16.294894 -10.050823 -2.356899 -0.151896 -0.638713 0.000000 0.000000 0.000000 5.275288 7.593028 -0.379624 -78.945677 -6.110678 32.012157 -178.403581 -68.267940 179.989861 2.474690 -7.141792 -0.176001 -0.122693 0.866423 -0.000000 0.000000 0.000000 0.000000 0.000000 0.000000 0.000000 3.105590 -11.205966 -0.448035 72.443324 -20.360019 26.634009 179.927587 76.083602 179.968681 -2.529837 12.527429 -0.283654 -0.047320 -0.567846 -0.000000 0.000000 0.000000 0.000000 0.000000 0.000000 0.000000 
-11.100052 17.845602 -0.690343 -40.620187 88.198258 -15.881570 3.708188 -3.186392 -4.637190 0.827619 -3.534363 -3.959946 -4.534440 -3.549473 -0.805926 6.710157 -16.282555 -10.045667 -2.333752 -0.150847 -0.632573 0.000000 0.000000 0.000000 5.584972 7.620015 -0.398366 -79.062320 -6.045903 32.634796 -178.353483 -67.562942 179.993597 2.065171 -7.136164 -0.146430 -0.107776 0.874247 -0.000000 0.000000 0.000000 0.000000 0.000000 0.000000 0.000000 2.720588 -11.134662 -0.470440 72.832683 -21.134157 26.004869 179.933248 75.747268 179.969063 -2.243842 12.488455 -0.248828 -0.058068 -0.566200 -0.000000 0.000000 0.000000 0.000000 0.000000 0.000000 0.000000 
-10.848420 17.889958 -0.662082 -33.981721 88.031003 -9.146300 3.723267 -3.148622 -4.809098 0.832390 -3.496397 -3.995654 -4.469440 -3.509954 -0.798034 6.535657 -16.247705 -10.046923 -2.318406 -0.150244 -0.629066 0.000000 0.000000 0.000000 5.911897 7.628394 -0.415407 -79.168535 -5.913909 33.203196 -178.319506 -66.892313 179.996354 1.741192 -7.144770 -0.123160 -0.094249 0.881464 -0.000000 0.000000 0.000000 0.000000 0.000000 0.000000 0.000000 2.409694 -11.043524 -0.485643 73.217062 -21.845674 25.371474 179.937054 75.437130 179.969422 -1.983338 12.465276 -0.217591 -0.067715 -0.565173 -0.000000 0.000000 0.000000 0.000000 0.000000 0.000000 0.000000 
-10.599474 17.922381 -0.633348 -26.825312 87.909411 -1.939016 3.659540 -3.135289 -4.921287 0.820442 -3.474519 -4.020389 -4.415016 -3.485581 -0.800481 6.397339 -16.191386 -10.054925 -2.311281 -0.150078 -0.628602 0.000000 0.000000 0.000000 6.235954 7.620679 -0.428005 -79.259346 -5.727753 33.719615 -178.300827 -66.268495 179.998065 1.511045 -7.164948 -0.106682 -0.082918 0.888136 -0.000000 0.000000 0.000000 0.000000 0.000000 0.000000 0.000000 2.177729 -10.937016 -0.493273 73.584983 -22.469421 24.745446 179.939354 75.168407 179.969718 -1.760974 12.457139 -0.191140 -0.075913 -0.564712 -0.000000 0.000000 0.000000 0.000000 0.000000 0.000000 0.000000 
-10.353544 17.943337 -0.604752 -19.770231 87.810287 5.107949 3.552561 -3.142498 -4.959181 0.801811 -3.468469 -4.031291 -4.373145 -3.476736 -0.813679 6.296674 -16.116078 -10.069182 -2.312165 -0.150317 -0.631239 0.000000 0.000000 0.000000 6.540014 7.599353 -0.433615 -79.333632 -5.495498 34.185212 -178.296408 -65.704169 179.998777 1.372686 -7.193808 -0.096888 -0.074127 0.894245 -0.000000 0.000000 0.000000 0.000000 0.000000 0.000000 0.000000 2.024531 -10.818045 -0.493554 73.926540 -22.985232 24.140833 179.940535 74.952548 179.969927 -1.585017 12.461907 -0.170374 -0.082431 -0.564752 -0.000000 0.000000 0.000000 0.000000 0.000000 0.000000 0.000000 
-10.110774 17.953184 -0.576756 -13.472237 87.698366 11.333382 3.436713 -3.158847 -4.915375 0.783584 -3.470327 -4.026773 -4.344954 -3.475750 -0.836812 6.232667 -16.027249 -10.089786 -2.319804 -0.150845 -0.637124 0.000000 0.000000 0.000000 6.811640 7.573027 -0.430715 -79.394148 -5.225805 34.600778 -178.305329 -65.208838 179.998557 1.320614 -7.225727 -0.093274 -0.067985 0.899610 -0.000000 0.000000 0.000000 0.000000 0.000000 0.000000 0.000000 1.942931 -10.689010 -0.487192 74.234150 -23.375611 23.575471 179.940827 74.796830 179.970036 -1.460505 12.478881 -0.155895 -0.087110 -0.565285 -0.000000 0.000000 0.000000 0.000000 0.000000 0.000000 0.000000 
-9.871173 17.952070 -0.549539 -8.240875 87.546802 16.427552 3.325954 -3.174296 -4.789773 0.766182 -3.471254 -4.006768 -4.330201 -3.473483 -0.867852 6.202655 -15.931804 -10.117512 -2.332235 -0.151486 -0.646488 0.000000 0.000000 0.000000 7.045499 7.552230 -0.419333 -79.444846 -4.926570 34.967052 -178.326768 -64.789005 179.997536 1.343273 -7.255366 -0.095141 -0.064253 0.903967 -0.000000 0.000000 0.000000 0.000000 0.000000 0.000000 0.000000 1.922085 -10.553403 -0.474991 74.505684 -23.629438 23.067692 179.940332 74.705393 179.970050 -1.386737 12.507855 -0.147502 -0.089946 -0.566317 -0.000000 0.000000 0.000000 0.000000 0.000000 0.000000 0.000000 
-9.634568 17.939923 -0.523111 -4.141827 87.348196 20.328930 3.222477 -3.184077 -4.588395 0.747777 -3.466422 -3.972728 -4.326824 -3.464759 -0.904915 6.202097 -15.835649 -10.152136 -2.347311 -0.152075 -0.659163 0.000000 0.000000 0.000000 7.244230 7.541763 -0.400867 -79.494205 -4.601949 35.282673 -178.359415 -64.444655 179.995937 1.418742 -7.282671 -0.100793 -0.062169 0.907263 -0.000000 0.000000 0.000000 0.000000 0.000000 0.000000 0.000000 1.947573 -10.415296 -0.457748 74.743222 -23.747186 22.631850 179.939253 74.672375 179.969992 -1.354225 12.547223 -0.144099 -0.091249 -0.567850 -0.000000 0.000000 0.000000 0.000000 0.000000 0.000000 0.000000 
-9.400669 17.916447 -0.497367 -1.176443 87.110572 23.045214 3.130473 -3.186463 -4.324356 0.728204 -3.454365 -3.927687 -4.331678 -3.448070 -0.946912 6.224973 -15.742942 -10.192261 -2.363017 -0.152494 -0.674515 0.000000 0.000000 0.000000 7.412695 7.540021 -0.377184 -79.552708 -4.250806 35.544432 -178.401934 -64.173453 179.994036 1.519439 -7.310369 -0.108443 -0.060634 0.909571 -0.000000 0.000000 0.000000 0.000000 0.000000 0.000000 0.000000 2.003749 -10.277988 -0.435986 74.949559 -23.739880 22.276492 179.937702 74.689953 179.969901 -1.348528 12.594563 -0.143889 -0.091473 -0.569810 -0.000000 0.000000 0.000000 0.000000 0.000000 0.000000 0.000000 
-9.169016 17.881375 -0.471964 1.110990 86.853628 25.038105 3.037912 -3.185499 -4.009727 0.706082 -3.438300 -3.873195 -4.341760 -3.426725 -0.989516 6.267451 -15.660457 -10.238549 -2.377317 -0.152576 -0.692517 0.000000 0.000000 0.000000 7.555329 7.552281 -0.350347 -79.624732 -3.886263 35.757492 -178.450621 -63.973709 179.992085 1.623338 -7.344498 -0.116293 -0.058994 0.911147 -0.000000 0.000000 0.000000 0.000000 0.000000 0.000000 0.000000 2.079811 -10.151149 -0.411921 75.127839 -23.618009 22.010077 179.936082 74.746915 179.969801 -1.354753 12.651147 -0.145375 -0.091124 -0.572225 -0.000000 0.000000 0.000000 0.000000 0.000000 0.000000 0.000000 
-8.938965 17.834169 -0.446894 2.515539 86.587615 26.126111 2.965892 -3.176814 -3.672290 0.685521 -3.415944 -3.815476 -4.354385 -3.398891 -1.034080 6.322392 -15.587922 -10.287404 -2.389643 -0.152399 -0.711656 0.000000 0.000000 0.000000 7.675723 7.567811 -0.321862 -79.720108 -3.494031 35.914829 -178.504540 -63.837532 179.990399 1.697057 -7.388306 -0.122156 -0.055751 0.912137 -0.000000 0.000000 0.000000 0.000000 0.000000 0.000000 0.000000 2.163576 -10.031069 -0.385743 75.278687 -23.408651 21.828128 179.933882 74.829815 179.969766 -1.356844 12.711540 -0.146362 -0.090633 -0.574931 -0.000000 0.000000 0.000000 0.000000 0.000000 0.000000 0.000000 
-8.709942 17.774712 -0.422013 3.351352 86.328950 26.635584 2.911476 -3.162373 -3.330425 0.666930 -3.389363 -3.757358 -4.368734 -3.366911 -1.077799 6.387240 -15.527870 -10.338274 -2.399825 -0.151990 -0.731449 0.000000 0.000000 0.000000 7.769675 7.589435 -0.292386 -79.835840 -3.084393 36.022785 -178.559705 -63.765679 179.989189 1.723129 -7.447700 -0.124734 -0.050487 0.912834 -0.000000 0.000000 0.000000 0.000000 0.000000 0.000000 0.000000 2.253554 -9.921550 -0.359733 75.400738 -23.128264 21.727952 179.930911 74.928437 179.969815 -1.344394 12.776941 -0.145650 -0.090293 -0.577932 -0.000000 0.000000 0.000000 0.000000 0.000000 0.000000 0.000000 
-8.481332 17.702908 -0.397438 3.649828 86.086305 26.618006 2.884864 -3.139963 -3.007941 0.652404 -3.357516 -3.703312 -4.385066 -3.330072 -1.119941 6.459531 -15.479771 -10.389578 -2.408752 -0.151504 -0.751047 0.000000 0.000000 0.000000 7.829324 7.616090 -0.262053 -79.967814 -2.657873 36.084209 -178.613593 -63.758791 179.988605 1.688504 -7.526579 -0.122928 -0.042866 0.913436 -0.000000 0.000000 0.000000 0.000000 0.000000 0.000000 0.000000 2.351895 -9.820548 -0.335271 75.489092 -22.795356 21.701642 179.926522 75.035950 179.970005 -1.311694 12.845835 -0.142639 -0.090187 -0.581143 -0.000000 0.000000 0.000000 0.000000 0.000000 0.000000 0.000000 
-8.252565 17.619311 -0.373524 3.448312 85.866999 26.126397 2.897190 -3.108019 -2.723386 0.643759 -3.319993 -3.656408 -4.406195 -3.288100 -1.159209 6.539173 -15.439585 -10.439965 -2.418740 -0.151192 -0.769824 0.000000 0.000000 0.000000 7.833696 7.654773 -0.229081 -80.100545 -2.227398 36.108921 -178.662085 -63.828362 179.988712 1.593076 -7.630191 -0.116830 -0.033396 0.914198 -0.000000 0.000000 0.000000 0.000000 0.000000 0.000000 0.000000 2.470937 -9.723622 -0.314394 75.535680 -22.423003 21.735418 179.920002 75.154300 179.970360 -1.260293 12.917256 -0.137330 -0.090161 -0.584431 -0.000000 0.000000 0.000000 0.000000 0.000000 0.000000 0.000000 
-8.023247 17.524554 -0.350716 2.655285 85.672077 25.088744 2.964343 -3.062720 -2.496266 0.643292 -3.274491 -3.620629 -4.435130 -3.238940 -1.196606 6.626494 -15.401944 -10.486904 -2.431973 -0.151320 -0.786774 0.000000 0.000000 0.000000 7.766584 7.705208 -0.192512 -80.222895 -1.790526 36.099668 -178.704454 -63.986842 179.989478 1.442661 -7.750832 -0.106434 -0.022565 0.914729 -0.000000 0.000000 0.000000 0.000000 0.000000 0.000000 0.000000 2.621649 -9.623192 -0.297869 75.531891 -22.019993 21.817747 179.910733 75.288080 179.970878 -1.201373 12.989327 -0.131116 -0.089797 -0.587670 -0.000000 0.000000 0.000000 0.000000 0.000000 0.000000 0.000000 
-7.793091 17.419777 -0.329563 1.223002 85.499799 23.470822 3.098850 -3.001344 -2.339399 0.652599 -3.219536 -3.598575 -4.475775 -3.181276 -1.233590 6.723139 -15.359721 -10.527531 -2.450802 -0.152156 -0.800943 0.000000 0.000000 0.000000 7.608326 7.768112 -0.151218 -80.319823 -1.345748 36.058974 -178.741061 -64.253326 179.990754 1.255836 -7.887428 -0.093033 -0.011383 0.914808 -0.000000 0.000000 0.000000 0.000000 0.000000 0.000000 0.000000 2.817413 -9.510967 -0.286147 75.471048 -21.587565 21.935842 179.898361 75.447872 179.971534 -1.151091 13.059996 -0.125997 -0.088552 -0.590712 -0.000000 0.000000 0.000000 0.000000 0.000000 0.000000 0.000000 
-7.562102 17.306460 -0.310467 -0.860570 85.346073 21.268425 3.307021 -2.922702 -2.257422 0.672277 -3.154735 -3.590936 -4.531995 -3.114765 -1.270381 6.833814 -15.307273 -10.560782 -2.477308 -0.153897 -0.812033 0.000000 0.000000 0.000000 7.346563 7.849434 -0.104719 -80.379338 -0.893694 35.988638 -178.773312 -64.647278 179.992343 1.056222 -8.021948 -0.078118 -0.001020 0.913470 -0.000000 0.000000 0.000000 0.000000 0.000000 0.000000 0.000000 3.074842 -9.381542 -0.280033 75.344194 -21.115928 22.086149 179.883020 75.648366 179.972263 -1.135071 13.126400 -0.124966 -0.085660 -0.593416 -0.000000 0.000000 0.000000 0.000000 0.000000 0.000000 0.000000 
